<svg width="24" height="20" viewBox="0 0 24 20" xmlns="http://www.w3.org/2000/svg">
<path d="M18.6263 13.2632L18.6249 13.2636C20.7951 12.0549 22.2635 9.73769 22.2635 7.07699C22.2635 3.16852 19.095 0 15.1866 0H2.44525L4.13969 1.95472C5.01182 2.96063 6.2777 3.53847 7.60912 3.53847H15.1866C17.1408 3.53847 18.725 5.12275 18.725 7.07699C18.725 9.03144 17.1408 10.6157 15.1866 10.6157H11.648L17.9439 17.8779C18.8159 18.8838 20.0819 19.4619 21.4132 19.4619H24L18.6263 13.2632Z" fill="black"/>
<path d="M14.7973 8.84621L13.1028 6.89175C12.2308 5.88584 10.9649 5.30774 9.63339 5.30774H0L10.8972 17.8779C11.7694 18.8838 13.0353 19.4619 14.3667 19.4619H16.9536L7.75073 8.84621H14.7973Z" fill="black"/>
</svg>
